<svg xmlns="http://www.w3.org/2000/svg" id="outputsvg" viewBox="0.0 0.0 219.74 237.35" width="304.2793044515855" height="328.6454206283726">
  <defs>
    <style>
      .cls-1, .cls-2, .cls-3, .cls-4 {
        stroke-width: 0px;
      }

      .cls-2 {
        fill: #fff;
      }

      .cls-3 {
        fill: #900;
      }

      .cls-4 {
        fill: #c00;
      }
    </style>
  </defs>
  <g id="l1ja6CUc75iMCN2WWSr8k4M">
    <path id="pfpobF22N" class="cls-1" d="M96.34,229c-12.9-2-27.5-7.8-38.4-15.2-7.3-5-18.2-16.6-23.5-25.1-9.2-14.7-13.6-30.2-13.6-47.6q0-10-5.1-17.5c-7.5-11.1-10.1-19.5-10.7-33.9-.5-12.6.6-20.8,3.8-28.3,1.7-4,2.3-4.4,5.3-4.4,3.3,0,3.5.3,4.6,4.6,1.6,6.4,5.5,13.8,10.9,20.8q4.6,5.9,7.1,2.5c4.5-6.2,19.6-20.3,25.3-23.7,17.5-10.4,31.1-13.7,53.2-12.9,20.7.7,34.1,4.7,48.8,14.8q6.1,4.1,8.4,1.2c6.3-7.7,11.6-21,12.9-32.6q.6-5.7,4.1-5.7c2.8,0,3.9.7,6.5,4.2,8.6,11.8,11.9,22.7,11.9,39.3,0,12.8-1.5,19.9-6.4,30q-3.4,7-1.3,14.5c1.7,6.3,2.1,10.3,2,25,0,16.2-.2,18.2-2.7,26.5-9.4,31-32.6,53.6-63.1,61.5-9.2,2.4-30.4,3.5-40,2ZM107.84,206.2c0-1.1,1-2.4,2.3-3,1.7-.8.9-.9-3.8-.5-3.3.3-6.2.7-6.4.9-.4.4,6.1,4.4,7.2,4.4.4,0,.7-.8.7-1.8ZM69.04,183c-1.8-1.1-6.9-5.5-11.5-9.9-9.4-9-11.8-10.6-13.5-8.9-1.9,1.9-1.4,5.1,1.7,9.9,5.6,8.7,9.1,10.5,21.6,10.8q5,.1,1.7-1.9ZM156.14,162.4c9.5-4.7,23.7-16.3,23.7-19.3,0-1.2-4.1-4.7-7.7-6.5-4.5-2.2-8.6-2-14.1.8-6.3,3.2-10.6,8.1-17.5,19.9-3.1,5.3-6.1,9.9-6.7,10.2-.5.3-1.5,1.5-2,2.5-.9,1.7.2,1.5,9.2-1.6,5.7-2,12.5-4.7,15.1-6Z"/>
  </g>
  <g id="l7kdDVfVgZ0F3hbbgoauY4h">
    <g>
      <path id="pQM5M6OUg" class="cls-3" d="M44.44,179.7c-3.1-4-5.6-9.8-5.6-12.9,0-3.8,2.7-6.8,6.1-6.8,4.3,0,7.6,2,14.4,8.9q5.9,6.1,2.3,6.1c-2,0-4-.4-4.3-1-.9-1.4-8.2-1.2-9.1.2-.5.7-.7,2.9-.5,5,.1,2.1,0,3.8-.3,3.8s-1.6-1.5-3-3.3Z"/>
      <path id="pOXd9fRjK" class="cls-3" d="M172.34,154.8c-1.1-.6-3.9-2.8-6.1-4.9-4-3.6-9.5-5.9-13.9-5.9-2.3.1-6.5,3.3-6.5,4.9,0,.6-1.4,1.1-3.1,1.1q-3,0-.8-3.3c11.1-16.1,27.4-19.9,39.2-8.9,4.1,3.9,3.6,7.1-2,13.1-4.2,4.5-5,4.9-6.8,3.9Z"/>
    </g>
  </g>
  <g id="l5UkJHtTtGXyua9pcDm4QqA">
    <g>
      <path id="pxTaImAw2" class="cls-4" d="M105.84,236.9c-24-2.8-44.5-12.5-61.1-28.9-17.8-17.5-28-40.3-29.6-66-.6-9.7-.9-10.9-4-15.5C3.54,115.1-.86,98,.14,83.5c1-13.9,7.8-32.9,15-41.9q2.4-3,4.6,4.4c3.2,10.4,13,29,15.3,29,.3,0,4.4-3.7,9-8.3,18.8-18.7,40.4-28.3,66.6-29.4,18.8-.9,32.6,1.9,49,9.9,6.5,3.2,8.5,3.8,9.6,2.8,2.2-1.7,7.2-16.5,8.5-24.7.6-3.9,1.1-11.3,1.1-16.2s.3-9.1.6-9.1c3,0,20.5,16.8,26.1,25,15.2,22.4,18.3,48,8.8,73.3-3.2,8.6-3.2,9-1.9,14,4.1,15.7,3.9,35.1-.7,51.9-7.8,28.7-31.1,54.5-59.4,65.9-14.2,5.6-32.8,8.4-46.5,6.8ZM133.34,224c37.1-9.5,63.9-42,66.1-80.4.7-11-1.1-24.5-4.4-33.3q-1.8-4.8,1.5-10.1c7.5-12.6,10.2-30.3,6.9-44.6-1.8-7.5-7-18.3-11.5-23.7q-2.9-3.4-3.6,2.6c-1.4,12.9-6.8,25.9-14.2,34.2q-3.8,4.3-9.8-.3c-13.7-10.5-30.4-16.3-49.1-17.1-18.6-.8-33.7,3-50.1,12.9-7.5,4.4-19.4,15.7-24.9,23.5-2.5,3.4-4.9,6.3-5.3,6.3-.9,0-5.8-5.3-9.8-10.5s-7.2-11.7-9.3-18.5q-1.7-5.5-3.8-.8c-5.1,11.5-5.5,28.5-.9,41.6,1.4,4,4.8,10.6,7.6,14.8q5.1,7.5,5.1,17.5c0,17.4,4.4,32.9,13.6,47.6,5.3,8.5,16.2,20.1,23.5,25.1,10.9,7.4,25.5,13.2,38.4,15.2,8.6,1.3,24.7.4,34-2Z"/>
      <path id="pqjr7erXz" class="cls-4" d="M54.94,187c-7.8-1.2-14.4-10.8-10.6-15,1.5-1.6,3.1-2,8.4-2,6.5,0,6.7.1,13.4,5.4,3.7,3,9.2,6.5,12.2,7.7s5.5,2.6,5.5,3c0,1.8-19.2,2.5-28.9.9Z"/>
      <path id="p13PkO6rOB" class="cls-4" d="M118.84,178.3c0-.3,3-3.7,6.6-7.6s8.4-10.3,10.7-14.2c2.2-3.8,5.6-8.9,7.4-11.2,3.3-4.1,3.7-4.3,8.6-4.3,7.8,0,12.2,1.6,17.8,6.6,2.7,2.4,5.4,4.4,5.9,4.4,2.4,0,.5,2.2-5.5,6.4-7.9,5.7-13.5,8.5-24.6,12.4-10.4,3.7-26.9,8.3-26.9,7.5Z"/>
    </g>
  </g>
  <g id="l4eu6rEkLi8nvC4zVc8wbIj">
    <path id="p1BZBlIUka" class="cls-2" d="M107.34,212.1c-5-1.3-9.2-3.9-11.4-7-3.1-4.3-2.7-5.1,3-5.1,7.3,0,13.2-1.7,23.8-6.7,8.9-4.3,9.5-4.4,10.8-2.7.7,1,1.3,2.3,1.3,2.8,0,1.5-9.2,6.5-10.8,5.9-.8-.3-1.6.4-1.9,1.5-.3,1.3-2.4,2.8-5.9,4.3-3,1.2-5.3,2.3-5.2,2.4.9.8,12.4-2,13.1-3.1.4-.8,1.4-1.4,2.2-1.4s2.5-1.1,3.9-2.5c5-5,6.9-1.7,2.5,4.5-3.7,5.5-17.3,9.2-25.4,7.1Z"/>
  </g>
</svg>